<svg width="600" height="161" viewBox="0 0 600 161" fill="none" xmlns="http://www.w3.org/2000/svg">
<path d="M139.676 78.0907C139.676 75.7018 139.427 73.3409 138.922 71.0078C138.898 70.7427 138.896 70.4754 138.847 70.2142C137.327 61.9879 134.194 54.4609 129.484 47.6292C126.841 43.7992 123.84 40.2951 120.296 37.3069C120.063 37.0779 119.842 36.835 119.595 36.6257C109.785 28.3312 98.5416 23.8484 85.8289 23.3079C82.277 23.1572 78.7328 23.3179 75.2281 24.0131C74.9361 24.0373 74.6403 24.0373 74.3542 24.0915C66.8703 25.5403 59.8388 28.1966 53.4854 32.5569C39.8794 41.8922 31.4608 54.8105 28.6984 71.3695C26.8372 82.5275 28.2674 93.3517 32.8772 103.712C43.3311 127.205 68.4278 142.714 95.611 136.284C117.404 131.128 131.426 116.926 137.897 94.9735C139.515 89.4838 139.952 83.8155 139.676 78.0907ZM133.812 93.7678C127.89 113.323 115.62 126.681 96.1262 131.548C74.4031 136.969 56.4338 129.693 42.6767 111.762C35.5475 102.47 31.9447 91.7364 32.1562 79.8649C32.4207 65.1063 38.0375 52.6406 48.3387 42.441C55.3171 35.5308 63.616 30.9816 73.1239 28.8316C73.2474 28.8034 73.3607 28.7351 73.4804 28.6849C73.5352 28.7371 73.592 28.7773 73.651 28.8075C73.7037 28.7391 73.7605 28.6809 73.8212 28.6367C76.1605 28.3112 78.49 27.8932 80.8527 27.7626C94.2903 27.0312 106.155 31.1705 116.566 39.855C119.922 42.6539 122.906 45.8528 125.413 49.4213C130.582 56.7836 134.126 64.8894 135.211 74.006C135.603 77.285 135.654 80.5665 135.56 83.8577H135.554C135.554 83.8577 135.536 83.8678 135.526 83.8756C135.536 83.8899 135.546 83.9039 135.558 83.9161C135.203 87.2434 134.784 90.5629 133.812 93.7678Z" fill="white"/>
<path d="M127.282 79.8732C113.038 65.3778 98.7847 50.8903 84.5536 36.3806C84.0049 35.8221 83.7345 35.7257 83.1272 36.3484C72.7182 47.0163 62.2821 57.6559 51.8497 68.3012C48.0823 72.1452 44.3089 75.9852 40.5376 79.827C40.0887 80.1183 39.7207 80.4216 40.3768 80.8878C40.9549 81.4524 41.5329 82.0152 42.1106 82.5798C42.3732 82.8731 42.624 83.1787 42.8982 83.4599C56.2636 97.0952 69.6387 110.725 82.9862 124.382C83.6445 125.056 83.9619 125.19 84.7004 124.43C92.3448 116.566 100.042 108.754 107.716 100.917C110.88 97.6862 114.019 94.4308 117.169 91.1858C120.614 87.7196 124.052 84.2474 127.508 80.7955C128.015 80.2871 127.519 80.1161 127.282 79.8732ZM85.966 116.214V106.983C85.9622 103.67 85.9622 100.355 85.9583 97.0412V96.9667C85.9562 95.2526 85.9562 93.5406 85.9524 91.8287V91.7564C85.9503 89.8537 85.9482 87.9507 85.9444 86.0481V86.0277C85.9444 85.2624 85.9426 84.4985 85.9405 83.7332V83.6506C85.9405 83.1465 85.9622 82.8431 86.6731 82.8449C93.6342 82.8671 100.595 82.871 107.554 82.8731H107.612C111.07 82.8731 114.528 82.8731 117.986 82.8753C118.108 82.8753 118.229 82.8971 118.57 82.9275C107.754 94.1274 96.9746 105.115 85.966 116.214ZM85.974 44.9304C86.4087 45.065 86.6379 45.3927 86.9006 45.656C90.4681 49.2406 94.0297 52.8334 97.5955 56.4201C97.8268 56.653 98.0773 56.8641 98.3183 57.0852C98.4342 57.2015 98.5496 57.316 98.6651 57.4308C99.0826 57.9693 99.5508 58.4573 100.089 58.8695C100.154 59.0462 100.272 59.1689 100.446 59.2312C100.534 59.434 100.675 59.5807 100.875 59.6652C102.474 61.3288 104.057 63.0068 105.671 64.6544C109.156 68.2068 112.657 71.7452 116.151 75.2879C116.227 75.4886 116.362 75.6314 116.558 75.7097C116.623 75.8986 116.746 76.0274 116.93 76.0936C117.007 76.2965 117.142 76.4371 117.34 76.5154C117.406 76.7025 117.53 76.8288 117.712 76.8972C117.928 77.1766 118.143 77.4539 118.354 77.7272C118.147 77.9945 117.9 77.88 117.692 77.88C107.475 77.8818 97.2565 77.8678 87.0397 77.89C86.2325 77.8918 85.9385 77.7755 85.9426 76.8271C85.9583 71.5183 85.9601 66.2075 85.9562 60.8988V60.8426C85.9699 60.1131 85.9855 59.3918 86.0208 58.6623C86.0522 57.9811 86.0012 57.292 85.9542 56.6008V56.5464C85.9503 52.8595 85.9444 49.1744 85.9426 45.4872C85.9426 45.3265 85.9601 45.1637 85.974 44.9304ZM81.2993 45.3022C81.4207 45.5333 81.4639 45.7984 81.4521 46.1161C81.4461 46.2707 81.4364 46.4796 81.4855 46.6406V48.8728C81.3387 49.1179 81.4503 49.4696 81.4503 49.735C81.4287 58.8412 81.4325 67.9477 81.4325 77.0539C81.4325 77.2027 81.4405 77.3494 81.458 77.49C81.3973 77.7473 81.2211 77.9 80.7136 77.8979C70.5024 77.8657 60.2916 77.8757 50.0783 77.8757H49.336C60.0017 66.8909 70.5143 56.1185 81.2993 45.3022ZM81.4894 115.491C81.4894 115.579 81.4601 115.666 81.4151 115.933C70.5533 105.024 59.9194 94.0651 49.1518 82.8649H54.8257C63.4064 82.8649 71.9895 82.8692 80.5726 82.8592C81.1486 82.8592 81.5128 82.8349 81.511 83.6606C81.4796 94.2702 81.4915 104.88 81.4894 115.491Z" fill="white"/>
<path d="M68.3022 114.633C66.1827 114.641 64.0607 114.655 61.9412 114.607C55.4797 114.456 50.8405 109.648 50.7603 103.031C50.7348 100.857 50.7522 98.6826 50.7446 96.5066C50.7446 96.181 50.8073 95.8354 50.537 95.5642C49.2871 94.3145 48.0428 93.0626 46.6499 91.6641C46.8222 95.8976 46.5519 99.9123 46.8146 103.925C47.3612 112.246 53.4637 118.403 61.5826 118.662C65.2656 118.778 68.9549 118.696 72.6418 118.7C72.7869 118.7 72.9728 118.756 73.067 118.511C71.8953 117.376 70.7061 116.241 69.5385 115.081C69.1799 114.723 68.7843 114.631 68.3022 114.633Z" fill="white"/>
<path d="M99.4723 46.3834C101.529 46.3591 103.585 46.349 105.64 46.3913C111.513 46.5079 116.376 51.0248 117.015 57.0187C117.269 59.4158 117.061 61.8351 117.097 64.2426C117.101 64.5721 116.989 64.9356 117.21 65.219C118.37 66.6858 119.722 67.9556 121.111 69.2375C121.06 64.815 121.501 60.4326 120.856 56.0863C119.816 49.0578 114.493 43.4535 107.942 42.5677C103.569 41.9748 99.1629 42.479 94.7725 42.29C95.8989 43.514 96.9687 44.6432 97.9992 45.8066C98.4143 46.2746 98.8828 46.3913 99.4723 46.3834Z" fill="white"/>
<path d="M50.2333 65.5667C50.6271 65.1506 50.7506 64.6984 50.7408 64.1277C50.7073 62.2211 50.7056 60.3142 50.7192 58.4072C50.7722 51.5676 55.6367 46.5158 62.3114 46.3895C64.3333 46.353 66.3551 46.3952 68.377 46.3934C68.6669 46.3934 69.0705 46.4657 69.2292 46.3068C70.5024 45.011 71.731 43.6707 72.9457 42.3688C69.0998 42.3688 65.2148 42.1999 61.3476 42.4049C53.6913 42.8128 47.6452 48.8649 46.8499 56.6931C46.4306 60.8305 46.7756 64.9818 46.8321 69.2497C47.9648 68.02 49.0852 66.7803 50.2333 65.5667Z" fill="white"/>
<path d="M121.088 98.4719C121.121 96.2533 121.095 94.0351 121.095 91.5657C119.853 92.8777 118.686 93.9167 117.706 95.1503C117.14 95.4999 117.005 96.0265 117.003 96.6816C116.999 99.3921 117.254 102.123 116.895 104.809C116.154 110.361 111.758 114.364 106.239 114.597C103.926 114.695 101.606 114.617 99.2881 114.621C98.9354 114.623 98.581 114.559 98.2852 114.874C97.0998 116.134 95.8988 117.38 94.592 118.748C99.0237 118.636 103.322 118.921 107.614 118.555C108.196 118.507 108.778 118.382 109.348 118.25C115.753 116.753 120.817 110.608 120.894 104.253C120.931 104.16 120.97 104.072 120.97 103.967V103.799C121.234 102.03 121.062 100.246 121.088 98.4719Z" fill="white"/>
<path d="M540.265 108.599V49.9579H553.329V59.7313H553.926C554.965 56.3464 556.755 53.7375 559.284 51.905C561.841 50.047 564.757 49.1182 568.033 49.1182C568.776 49.1182 569.609 49.1565 570.527 49.2327C571.469 49.2835 572.25 49.3726 572.871 49.5V62.2129C572.299 62.0093 571.395 61.8311 570.153 61.6787C568.94 61.5006 567.76 61.4115 566.616 61.4115C564.16 61.4115 561.952 61.9585 559.992 63.053C558.056 64.122 556.531 65.6107 555.415 67.5198C554.295 69.4286 553.737 71.6303 553.737 74.1244V108.599H540.265Z" fill="white"/>
<path d="M505.535 109.744C499.804 109.744 494.854 108.522 490.685 106.079C486.541 103.61 483.352 100.123 481.116 95.6183C478.884 91.0881 477.768 85.7558 477.768 79.622C477.768 73.5899 478.884 68.2959 481.116 63.7403C483.377 59.1589 486.527 55.5958 490.573 53.0506C494.616 50.48 499.371 49.1945 504.83 49.1945C508.354 49.1945 511.678 49.7798 514.804 50.9508C517.957 52.096 520.737 53.8778 523.144 56.2956C525.576 58.7135 527.487 61.7932 528.876 65.5345C530.264 69.2504 530.962 73.679 530.962 78.8202V83.0581H484.095V73.7427H518.044C518.02 71.0958 517.462 68.7413 516.37 66.6798C515.278 64.5929 513.75 62.951 511.79 61.755C509.854 60.5586 507.597 59.9607 505.015 59.9607C502.259 59.9607 499.842 60.6476 497.756 62.0222C495.673 63.371 494.048 65.1528 492.879 67.3671C491.739 69.5559 491.156 71.9609 491.132 74.5827V82.7143C491.132 86.125 491.738 89.052 492.956 91.4952C494.17 93.9131 495.872 95.771 498.056 97.0691C500.24 98.3417 502.793 98.9782 505.723 98.9782C507.684 98.9782 509.456 98.698 511.047 98.1381C512.634 97.5528 514.012 96.7002 515.177 95.5803C516.345 94.4605 517.225 93.0734 517.821 91.419L530.404 92.8695C529.608 96.2802 528.094 99.2579 525.862 101.803C523.654 104.323 520.825 106.283 517.375 107.683C513.925 109.057 509.979 109.744 505.535 109.744Z" fill="white"/>
<path d="M460.221 109.439C457.961 109.439 456.025 108.624 454.413 106.995C452.801 105.366 452.006 103.381 452.03 101.04C452.006 98.7488 452.801 96.7893 454.413 95.1603C456.025 93.5313 457.961 92.717 460.221 92.717C462.405 92.717 464.302 93.5313 465.914 95.1603C467.554 96.7893 468.384 98.7488 468.408 101.04C468.384 102.592 467.986 104.005 467.219 105.277C466.472 106.55 465.481 107.568 464.24 108.332C463.022 109.07 461.683 109.439 460.221 109.439Z" fill="white"/>
<path d="M403.615 74.2389V108.599H390.14V49.958H403.019V59.9224H403.688C405.004 56.6391 407.1 54.0305 409.982 52.096C412.884 50.1619 416.47 49.1945 420.736 49.1945C424.682 49.1945 428.121 50.0599 431.048 51.7905C434.002 53.5214 436.284 56.0284 437.899 59.3117C439.535 62.595 440.341 66.5782 440.316 71.2611V108.599H426.841V73.3992C426.841 69.4794 425.85 66.4125 423.865 64.1982C421.905 61.9839 419.187 60.877 415.713 60.877C413.355 60.877 411.258 61.4115 409.42 62.4802C407.609 63.5238 406.183 65.0383 405.14 67.0236C404.125 69.0085 403.615 71.4139 403.615 74.2389Z" fill="white"/>
<path d="M341.835 74.2389V108.599H328.36V49.958H341.24V59.9224H341.91C343.225 56.6391 345.322 54.0305 348.2 52.096C351.105 50.1619 354.691 49.1945 358.957 49.1945C362.902 49.1945 366.342 50.0599 369.269 51.7905C372.223 53.5214 374.505 56.0284 376.12 59.3117C377.756 62.595 378.562 66.5782 378.537 71.2611V108.599H365.062V73.3992C365.062 69.4794 364.071 66.4125 362.086 64.1982C360.125 61.9839 357.408 60.877 353.934 60.877C351.575 60.877 349.479 61.4115 347.642 62.4802C345.831 63.5238 344.404 65.0383 343.361 67.0236C342.344 69.0085 341.835 71.4139 341.835 74.2389Z" fill="white"/>
<path d="M286.719 109.782C283.096 109.782 279.833 109.12 276.93 107.797C274.051 106.448 271.768 104.463 270.081 101.841C268.418 99.2197 267.586 95.9875 267.586 92.1443C267.586 88.8355 268.182 86.0996 269.373 83.9361C270.564 81.7726 272.19 80.0421 274.25 78.744C276.309 77.446 278.63 76.4661 281.21 75.8042C283.816 75.1172 286.508 74.6207 289.288 74.3155C292.638 73.9591 295.355 73.6411 297.44 73.3609C299.524 73.0554 301.038 72.5974 301.981 71.9867C302.949 71.3502 303.433 70.3703 303.433 69.0468V68.8179C303.433 65.9417 302.601 63.7149 300.939 62.1367C299.276 60.5586 296.881 59.7697 293.755 59.7697C290.454 59.7697 287.836 60.5077 285.9 61.9839C283.99 63.4601 282.699 65.2036 282.029 67.2143L269.448 65.3818C270.44 61.8187 272.078 58.8409 274.361 56.4484C276.644 54.0305 279.436 52.2234 282.736 51.027C286.037 49.8055 289.685 49.1945 293.68 49.1945C296.435 49.1945 299.177 49.5254 301.907 50.1873C304.636 50.8488 307.13 51.9433 309.389 53.4703C311.647 54.9722 313.458 57.0208 314.823 59.6169C316.213 62.2129 316.908 65.4583 316.908 69.3524V108.599H303.954V100.543H303.507C302.688 102.172 301.534 103.699 300.045 105.124C298.581 106.524 296.732 107.657 294.499 108.522C292.29 109.362 289.697 109.782 286.719 109.782ZM290.218 99.6272C292.924 99.6272 295.268 99.0798 297.254 97.9853C299.239 96.8655 300.765 95.3893 301.832 93.5568C302.924 91.7242 303.47 89.7264 303.47 87.5629V80.6528C303.048 81.0091 302.329 81.3401 301.311 81.6453C300.319 81.9508 299.202 82.2181 297.961 82.447C296.72 82.6764 295.492 82.88 294.276 83.0581C293.06 83.2363 292.005 83.3887 291.112 83.5161C289.102 83.7962 287.303 84.2542 285.714 84.8907C284.126 85.5268 282.873 86.4177 281.955 87.5629C281.037 88.6828 280.577 90.1335 280.577 91.9153C280.577 94.4605 281.483 96.3821 283.295 97.6802C285.106 98.9782 287.414 99.6272 290.218 99.6272Z" fill="white"/>
<path d="M258.507 30.4112V108.599H245.032V30.4112H258.507Z" fill="white"/>
<path d="M181.615 130.589V49.958H194.866V59.6552H195.648C196.343 58.2298 197.323 56.7157 198.589 55.1121C199.854 53.4831 201.566 52.096 203.725 50.9508C205.884 49.7798 208.639 49.1945 211.989 49.1945C216.406 49.1945 220.389 50.3526 223.938 52.6688C227.511 54.9593 230.34 58.3572 232.425 62.8619C234.534 67.3417 235.589 72.8393 235.589 79.3548C235.589 85.794 234.559 91.2663 232.499 95.771C230.44 100.276 227.635 103.712 224.087 106.079C220.538 108.446 216.518 109.63 212.026 109.63C208.751 109.63 206.033 109.07 203.874 107.95C201.715 106.83 199.978 105.481 198.663 103.903C197.373 102.299 196.368 100.785 195.648 99.3599H195.09V130.589H181.615ZM194.829 79.2786C194.829 83.0706 195.35 86.3923 196.393 89.2427C197.46 92.0934 198.986 94.3203 200.971 95.9238C202.981 97.502 205.413 98.2909 208.267 98.2909C211.245 98.2909 213.739 97.4762 215.749 95.8476C217.759 94.1932 219.272 91.9407 220.29 89.0899C221.332 86.2141 221.853 82.9436 221.853 79.2786C221.853 75.6389 221.345 72.4064 220.327 69.5814C219.31 66.7563 217.796 64.542 215.786 62.9385C213.776 61.3349 211.269 60.5332 208.267 60.5332C205.388 60.5332 202.944 61.3095 200.934 62.8619C198.924 64.4147 197.398 66.5907 196.355 69.3903C195.338 72.1903 194.829 75.4861 194.829 79.2786Z" fill="white"/>
</svg>
